<svg xmlns="http://www.w3.org/2000/svg"  viewBox="0 0 48 48" width="48px" height="48px" baseProfile="basic"><linearGradient id="rFE0LeQREuhnkT6QNrtzua" x1="47.331" x2="-29.111" y1="57.163" y2="-33.938" gradientUnits="userSpaceOnUse"><stop offset="0" stop-color="#e7fae8"/><stop offset="1" stop-color="#a17259"/></linearGradient><path fill="url(#rFE0LeQREuhnkT6QNrtzua)" d="M35,42H10c-3.3,0-6-2.7-6-6V6h25c3.314,0,6,2.686,6,6V42z"/><linearGradient id="rFE0LeQREuhnkT6QNrtzub" x1="12.391" x2="39.368" y1="29.5" y2="29.5" gradientTransform="matrix(-1 0 0 1 70 0)" gradientUnits="userSpaceOnUse"><stop offset="0" stop-color="#e7fae8"/><stop offset="1" stop-color="#827767"/></linearGradient><path fill="url(#rFE0LeQREuhnkT6QNrtzub)" d="M35,42h3c3.3,0,6-2.7,6-6V17h-9V42z"/><linearGradient id="rFE0LeQREuhnkT6QNrtzuc" x1="32.982" x2="5.089" y1="39.622" y2="6.381" gradientUnits="userSpaceOnUse"><stop offset="0" stop-color="#b0845d" stop-opacity="0"/><stop offset="1" stop-color="#2e424f"/></linearGradient><path fill="url(#rFE0LeQREuhnkT6QNrtzuc)" d="M19,23H9v-9c0-1.657,1.343-3,3-3h7V23z"/><linearGradient id="rFE0LeQREuhnkT6QNrtzud" x1="35.136" x2="19.234" y1="31.888" y2="12.936" gradientUnits="userSpaceOnUse"><stop offset="0" stop-color="#b0845d" stop-opacity="0"/><stop offset="1" stop-color="#2e424f"/></linearGradient><rect width="8" height="4" x="22" y="19" fill="url(#rFE0LeQREuhnkT6QNrtzud)"/><linearGradient id="rFE0LeQREuhnkT6QNrtzue" x1="50.858" x2="-8.117" y1="49.605" y2="15.555" gradientUnits="userSpaceOnUse"><stop offset="0" stop-color="#b0845d" stop-opacity="0"/><stop offset="1" stop-color="#2e424f"/></linearGradient><path fill="url(#rFE0LeQREuhnkT6QNrtzue)" d="M30,26H9v4h21V26z M30,33H9v4h18c1.657,0,3-1.343,3-3V33z"/></svg>